<?xml version="1.0" encoding="UTF-8"?>
<svg version="1.1" xmlns="http://www.w3.org/2000/svg" width="1108" height="304">
<path d="M0 0 C0 25.08 0 50.16 0 76 C-8.415 76.99 -8.415 76.99 -17 78 C-37.51920272 83.74537676 -53.67887321 94.78286939 -65 113 C-67.355426 117.56105517 -69.27145708 122.16894414 -71 127 C-71.3403125 127.9178125 -71.680625 128.835625 -72.03125 129.78125 C-77.84276114 148.50723033 -74.12959932 169.06638324 -65.4050293 186.14624023 C-55.77237147 203.82237331 -40.06527245 215.54321829 -20.8125 221.25 C-1.02514064 226.7678465 19.15147599 223.97708468 37 214 C41.27676026 211.34266498 45.17354994 208.26719966 49 205 C49.65226563 204.45988281 50.30453125 203.91976562 50.9765625 203.36328125 C66.23292329 189.5350273 71.20997677 169.53016263 74 150 C99.08 150 124.16 150 150 150 C150 165.38119973 150 165.38119973 148.875 172.5625 C148.74448242 173.40329102 148.61396484 174.24408203 148.47949219 175.11035156 C143.37422144 205.5721777 129.16679322 232.64169855 108 255 C107.18015625 255.88429687 106.3603125 256.76859375 105.515625 257.6796875 C78.94361445 285.43092929 40.48757179 300.42629381 2.40698242 301.3515625 C-41.17514098 301.70294268 -79.07381504 285.14103499 -110 255 C-134.27174167 230.80849549 -150.85725423 194.60528843 -151.23828125 160.1796875 C-151.25297203 159.08086243 -151.25297203 159.08086243 -151.26795959 157.95983887 C-151.43794281 141.94693349 -151.4029327 126.53089276 -147 111 C-146.78569336 110.2260791 -146.57138672 109.4521582 -146.35058594 108.65478516 C-143.15950984 97.45814914 -138.55053398 87.20851978 -133 77 C-132.16855469 75.42992188 -132.16855469 75.42992188 -131.3203125 73.828125 C-126.73435516 65.5339055 -121.01715463 58.28245502 -115 51 C-114.34644531 50.20207031 -113.69289062 49.40414062 -113.01953125 48.58203125 C-109.05915443 43.89664265 -104.7372556 39.8885616 -100 36 C-99.00226563 35.1646875 -98.00453125 34.329375 -96.9765625 33.46875 C-77.51583123 17.46339615 -55.51914771 7.47799357 -31 2 C-29.42025391 1.63068359 -29.42025391 1.63068359 -27.80859375 1.25390625 C-18.3765949 -0.64823538 -9.97377682 0 0 0 Z " fill="#FEFEFE" transform="translate(151,0)"/>
<path d="M0 0 C0 25.08 0 50.16 0 76 C-8.415 76.99 -8.415 76.99 -17 78 C-37.51920272 83.74537676 -53.67887321 94.78286939 -65 113 C-71.26045995 125.12277661 -73.76966669 136.46633364 -75 150 C-100.08 150 -125.16 150 -151 150 C-151 129.0565619 -151 129.0565619 -149.375 121.5 C-149.19678711 120.62964111 -149.01857422 119.75928223 -148.83496094 118.86254883 C-145.62616434 103.92481339 -140.28178964 90.39263823 -133 77 C-132.16855469 75.42992188 -132.16855469 75.42992188 -131.3203125 73.828125 C-126.73435516 65.5339055 -121.01715463 58.28245502 -115 51 C-114.34644531 50.20207031 -113.69289062 49.40414062 -113.01953125 48.58203125 C-109.05915443 43.89664265 -104.7372556 39.8885616 -100 36 C-99.00226563 35.1646875 -98.00453125 34.329375 -96.9765625 33.46875 C-77.51583123 17.46339615 -55.51914771 7.47799357 -31 2 C-29.42025391 1.63068359 -29.42025391 1.63068359 -27.80859375 1.25390625 C-18.3765949 -0.64823538 -9.97377682 0 0 0 Z " fill="#5CE1E6" transform="translate(151,0)"/>
<path d="M0 0 C74.37113402 0 74.37113402 0 89 11 C89.77988281 11.57363281 90.55976563 12.14726563 91.36328125 12.73828125 C106.20501469 24.70907489 113.02006804 43.59301967 115 62 C116.56205952 82.94871609 111.565341 103.5460427 97.6796875 119.69921875 C83.30446422 134.77292466 67.26080992 138.44147616 47 140 C31.49 140 15.98 140 0 140 C0 93.8 0 47.6 0 0 Z M27 21 C27 53.01 27 85.02 27 118 C52.65076217 118.76904074 52.65076217 118.76904074 73.75 106.9375 C82.70057918 97.43246016 86.07533712 85.7251225 87 73 C87.05414063 72.33742187 87.10828125 71.67484375 87.1640625 70.9921875 C87.78745791 56.08737 83.23892976 41.8709583 73.625 30.5 C68.92264529 25.55140712 64.46562176 23.15520725 58 21 C47.77 21 37.54 21 27 21 Z " fill="#FFFFFF" transform="translate(331,97)"/>
<path d="M0 0 C70.79311798 0 70.79311798 0 81.9375 10.375 C87.96665601 16.90067474 89.34849532 24.66137729 89.20703125 33.31640625 C88.53455043 42.03328029 85.43058261 48.11208259 79 54 C77.04754184 55.50910522 75.13540285 56.75000808 73 58 C73.99 58.7734375 73.99 58.7734375 75 59.5625 C75.99 60.366875 76.98 61.17125 78 62 C78.639375 62.48597656 79.27875 62.97195312 79.9375 63.47265625 C85.88073073 68.23399451 90.26120837 73.26860366 91.26611328 81.06445312 C91.94156409 89.7869878 92.11124442 98.54208361 87 106 C86.61070312 106.61875 86.22140625 107.2375 85.8203125 107.875 C78.88310624 117.3982654 67.97259416 119.17123431 57 121 C38.19 121 19.38 121 0 121 C0 81.07 0 41.14 0 0 Z M25 20 C25 29.9 25 39.8 25 50 C31.744375 50.0928125 31.744375 50.0928125 38.625 50.1875 C40.73575928 50.22846802 40.73575928 50.22846802 42.88916016 50.27026367 C44.01112793 50.27775635 45.1330957 50.28524902 46.2890625 50.29296875 C47.43068848 50.3086792 48.57231445 50.32438965 49.74853516 50.34057617 C54.84635172 49.80660304 58.02570065 48.15862625 61.3125 44.25 C63.83519215 39.39148179 64.27436109 35.76810477 63.4375 30.375 C61.73438341 26.37637843 59.77001586 24.06113884 56 22 C49.27825101 19.70955582 42.4569905 19.75517185 35.4375 19.875 C30.2709375 19.936875 30.2709375 19.936875 25 20 Z M25 68 C25 78.56 25 89.12 25 100 C29.62 100.0825 34.24 100.165 39 100.25 C40.44117188 100.28641602 41.88234375 100.32283203 43.3671875 100.36035156 C50.73316485 100.42392208 55.80166174 100.11447975 62 96 C65.84084834 91.91135499 66.36155244 87.76672509 66.2734375 82.34765625 C65.7491054 77.84589069 63.93608555 74.54230544 60.38671875 71.71484375 C54.90895486 68.32616054 49.4597291 67.86849608 43.1640625 67.90234375 C41.72474365 67.90609009 41.72474365 67.90609009 40.25634766 67.90991211 C39.05800293 67.91901611 37.8596582 67.92812012 36.625 67.9375 C30.870625 67.9684375 30.870625 67.9684375 25 68 Z " fill="#5CE1E6" transform="translate(669,114)"/>
<path d="M0 0 C1.1919397 0.00737183 1.1919397 0.00737183 2.40795898 0.01489258 C15.27939439 0.27140049 25.64859024 5.28708727 35.046875 14.01171875 C44.29930828 23.95639613 48.60069374 36.0062971 48.3984375 49.4765625 C47.37328568 63.2591592 42.12805041 74.5359351 32.08984375 84.015625 C21.6657632 92.26509925 9.42681138 96.1530912 -3.8125 95.3125 C-16.7446309 93.62753181 -28.79055903 87.81684592 -37.1796875 77.65234375 C-45.45653511 65.79150232 -48.11372594 53.51538119 -46.8125 39.3125 C-44.42999398 26.56067801 -37.85282202 16.45495627 -27.8125 8.3125 C-18.94133281 2.90663249 -10.38261796 -0.07589794 0 0 Z " fill="#5DE1E6" transform="translate(149.8125,102.6875)"/>
<path d="M0 0 C8.94438265 6.88876529 8.94438265 6.88876529 11 11 C11.33 6.38 11.66 1.76 12 -3 C20.25 -3 28.5 -3 37 -3 C37 28.35 37 59.7 37 92 C28.75 92 20.5 92 12 92 C11.67 87.38 11.34 82.76 11 78 C10.0925 79.19625 9.185 80.3925 8.25 81.625 C1.71430949 89.11908097 -7.0428905 92.39803733 -16.75390625 93.23828125 C-28.8723088 93.5585172 -39.96856863 90.31591304 -49 82 C-60.1562353 69.2346923 -62.83691264 53.70429194 -61.72851562 37.19287109 C-60.6426054 25.16285055 -56.12661763 13.43825864 -47.125 5.125 C-34.56402865 -5.04340538 -14.40182566 -8.48878993 0 0 Z M-31.67578125 26.92578125 C-35.25834049 32.53740059 -36.51327144 37.30126536 -36.375 43.9375 C-36.36484863 44.64189209 -36.35469727 45.34628418 -36.34423828 46.07202148 C-36.11112238 53.87236855 -34.21647797 59.66234313 -28.859375 65.45703125 C-23.65911929 69.7723695 -17.00130539 71.75449076 -10.2890625 71.375 C-2.67307804 70.12733019 2.8345373 67.238478 7.59375 61.12109375 C12.40822706 53.85925752 12.91052163 46.60856816 12 38 C10.31135341 30.76294317 6.88578619 25.51787426 1 21 C-10.22713613 14.0391756 -23.50372861 17.2551287 -31.67578125 26.92578125 Z " fill="#5CE1E6" transform="translate(833,143)"/>
<path d="M0 0 C0.96639404 0.00757324 1.93278809 0.01514648 2.9284668 0.02294922 C9.94057619 0.1851542 15.8539194 0.9762704 22.0625 4.4375 C23.23425781 5.05625 23.23425781 5.05625 24.4296875 5.6875 C34.73659148 11.79529495 40.3102666 21.33271208 44.0625 32.4375 C44.30871094 33.16324219 44.55492187 33.88898438 44.80859375 34.63671875 C46.91109532 42.24922442 46.0625 49.3121989 46.0625 57.4375 C22.9625 57.4375 -0.1375 57.4375 -23.9375 57.4375 C-22.47425649 72.4344134 -22.47425649 72.4344134 -13.875 82.875 C-7.40967347 87.42927032 -0.61324343 87.04168823 7.0625 86.4375 C13.06688884 84.81092408 16.53542467 81.41690046 20.0625 76.4375 C20.74801024 75.11375609 21.41911903 73.78222419 22.0625 72.4375 C29.8941181 72.1674442 37.33529225 73.20642281 45.0625 74.4375 C42.11718092 85.36618395 36.05083305 94.89717583 26.453125 101.1328125 C17.36222764 106.33119856 9.52298065 107.78554154 -0.8125 107.75 C-1.74191406 107.76611328 -2.67132813 107.78222656 -3.62890625 107.79882812 C-15.39953949 107.80703638 -25.62080656 104.17080456 -34.390625 96.2109375 C-39.82821352 90.5392806 -43.3174334 84.82506035 -45.9375 77.4375 C-46.41509766 76.15552734 -46.41509766 76.15552734 -46.90234375 74.84765625 C-51.80604169 59.09706885 -50.36834184 39.91754685 -43.359375 25.1015625 C-37.12081845 13.72041203 -28.73622932 5.92795799 -16.296875 1.79296875 C-10.83173033 0.22860214 -5.66090257 -0.06233276 0 0 Z M-17.68359375 24.3046875 C-21.98619374 29.60813209 -23.9375 34.52414044 -23.9375 41.4375 C-9.0875 41.4375 5.7625 41.4375 21.0625 41.4375 C19.87164916 30.71984245 18.07783867 26.39130831 9.9375 19.6875 C0.924466 13.67881067 -10.82568272 16.9711719 -17.68359375 24.3046875 Z " fill="#FFFFFF" transform="translate(508.9375,130.5625)"/>
<path d="M0 0 C7.92 0 15.84 0 24 0 C24.33 22.11 24.66 44.22 25 67 C32.92914153 57.52433368 32.92914153 57.52433368 40.625 47.875 C41.91393946 46.21951838 43.20342804 44.56884707 44.52832031 42.94189453 C46.09980679 40.9391803 46.09980679 40.9391803 47.58886719 38.36669922 C50.37720656 34.11798026 52.27376066 31.41041171 57.35791016 30.20166016 C61.28422043 30.01590471 65.07770354 30.12529454 69 30.375 C70.36051256 30.42524528 71.72120451 30.47085799 73.08203125 30.51171875 C76.39264237 30.62911631 79.69397981 30.79305536 83 31 C81.41767089 35.25769409 79.58783674 37.82183002 76.4375 41.125 C72.23243719 45.61024847 68.29694427 50.24119649 64.43359375 55.02734375 C61.07854698 59.125563 57.62353533 63.13465979 54.16064453 67.1418457 C51.3706072 70.3760704 48.64522227 73.64477745 46 77 C47.41920003 81.46034294 49.86616727 84.32847558 53.0625 87.625 C57.54018602 92.36720308 61.7219401 97.25976841 65.8125 102.34375 C68.01037098 105.01259334 70.29327516 107.5727066 72.625 110.125 C84 122.63949912 84 122.63949912 84 126 C58.75177318 128.50077675 58.75177318 128.50077675 51.65917969 124.76806641 C47.90124206 121.36966524 45.7363126 117.01588441 43.44775391 112.55615234 C40.60770108 107.54175891 36.8722085 103.14129757 33.3125 98.625 C31.92928484 96.82883087 30.55004623 95.0295887 29.17578125 93.2265625 C28.58708252 92.45908691 27.99838379 91.69161133 27.3918457 90.90087891 C26 89 26 89 25 87 C24.67 99.87 24.34 112.74 24 126 C16.08 126 8.16 126 0 126 C0 84.42 0 42.84 0 0 Z " fill="#5CE1E6" transform="translate(1003,109)"/>
<path d="M0 0 C9.07363894 6.71783653 12.66459683 15.96671324 14.57687378 26.77131653 C15.34638732 32.64312386 15.24308686 38.50539046 15.1953125 44.41796875 C15.19157196 45.76988005 15.18872992 47.1217941 15.18673706 48.47370911 C15.17918241 51.99341616 15.15960658 55.51295224 15.1373291 59.03259277 C15.11669227 62.63954355 15.10769762 66.24652255 15.09765625 69.85351562 C15.07635095 76.90241947 15.04123786 83.95118042 15 91 C6.75 91 -1.5 91 -10 91 C-10.05607422 84.85890625 -10.05607422 84.85890625 -10.11328125 78.59375 C-10.15143679 75.31179652 -10.19250916 72.02990812 -10.2355423 68.74801636 C-10.28004679 65.29329681 -10.31951314 61.83869416 -10.34643555 58.38378906 C-10.37762537 54.41185767 -10.43240877 50.44041378 -10.48828125 46.46875 C-10.49467117 45.24136108 -10.5010611 44.01397217 -10.50764465 42.74938965 C-10.65708862 33.98697752 -11.49954758 26.50045242 -18 20 C-23.86139429 16.27002182 -29.82125612 15.43895935 -36.5625 16.5625 C-42.00751339 17.97312523 -46.15205342 20.91555975 -49.0625 25.7734375 C-51.40864912 30.93947739 -52.11497934 36.0022873 -52.20532227 41.61645508 C-52.22526749 42.71721878 -52.24521271 43.81798248 -52.26576233 44.95210266 C-52.29083107 46.71797981 -52.29083107 46.71797981 -52.31640625 48.51953125 C-52.33718735 49.73323898 -52.35796844 50.94694672 -52.37937927 52.19743347 C-52.44468916 56.06906551 -52.50367363 59.94076455 -52.5625 63.8125 C-52.60570285 66.43946002 -52.64931771 69.06641329 -52.69335938 71.69335938 C-52.80112569 78.1288386 -52.90033785 84.56436974 -53 91 C-61.25 91 -69.5 91 -78 91 C-78 59.65 -78 28.3 -78 -4 C-69.75 -4 -61.5 -4 -53 -4 C-52.505 2.93 -52.505 2.93 -52 10 C-50.88625 8.618125 -49.7725 7.23625 -48.625 5.8125 C-36.87237746 -7.46670874 -14.80921823 -9.29828403 0 0 Z " fill="#5CE1E6" transform="translate(968,144)"/>
<path d="M0 0 C8.25 0 16.5 0 25 0 C27.68652168 6.71630421 30.22856241 13.37247881 32.53125 20.21484375 C32.84904419 21.15123184 33.16683838 22.08761993 33.4942627 23.05238342 C34.49873284 26.01322972 35.49960466 28.97527471 36.5 31.9375 C37.82132643 35.84298805 39.14429077 39.74791703 40.46875 43.65234375 C40.78142822 44.57445648 41.09410645 45.49656921 41.41625977 46.44662476 C43.52963793 52.66206427 45.69524833 58.85246151 48 65 C50.02382839 61.96425742 50.99431304 59.41447996 52.15478516 55.96801758 C52.57506989 54.72695755 52.99535461 53.48589752 53.42837524 52.20722961 C53.88203216 50.85302848 54.3355923 49.49879492 54.7890625 48.14453125 C55.25664395 46.75863359 55.724616 45.37286765 56.19296265 43.98722839 C57.42325882 40.34384652 58.64824279 36.69870011 59.87213135 33.05316162 C61.12249001 29.33188745 62.37786126 25.61230546 63.6328125 21.89257812 C66.0934529 14.59669791 68.54801879 7.29879598 71 0 C77.6 0 84.2 0 91 0 C83.0128995 24.11589054 74.89375039 48.18665942 66.75 72.25 C66.48524242 73.03231491 66.22048485 73.81462982 65.94770432 74.62065125 C62.63314337 84.41422162 59.31707872 94.2072821 56 104 C49.4 104 42.8 104 36 104 C31.61860196 94.00336195 28.11160521 83.79852962 24.6394043 73.45834351 C22.89586584 68.2661762 21.13949308 63.078358 19.3828125 57.890625 C19.02370789 56.8294194 18.66460327 55.76821381 18.2946167 54.67485046 C15.77469808 47.24329693 13.21113904 39.82789497 10.6171875 32.421875 C10.26814362 31.42523331 9.91909973 30.42859161 9.55947876 29.40174866 C7.88534652 24.62664178 6.20580277 19.85348201 4.52197266 15.08178711 C3.92085705 13.37094553 3.31978058 11.6600902 2.71875 9.94921875 C2.44143036 9.16814758 2.16411072 8.38707642 1.87838745 7.58233643 C0 2.22607488 0 2.22607488 0 0 Z " fill="#FFFFFF" transform="translate(561,133)"/>
<path d="M0 0 C1.1919397 0.00737183 1.1919397 0.00737183 2.40795898 0.01489258 C15.27939439 0.27140049 25.64859024 5.28708727 35.046875 14.01171875 C44.38159721 24.04484171 46.95918127 33.80099397 48.1875 47.3125 C16.8375 47.3125 -14.5125 47.3125 -46.8125 47.3125 C-46.8125 33.05643933 -42.20316589 22.96661881 -32.6875 12.625 C-23.74794416 3.98745619 -12.28450859 -0.08980094 0 0 Z " fill="#FEFEFE" transform="translate(149.8125,102.6875)"/>
</svg>